<svg width="25" height="25" viewBox="0 0 16 15" fill="none" xmlns="http://www.w3.org/2000/svg">
<path fill-rule="evenodd" clip-rule="evenodd" d="M15.1892 2.43223C15.531 2.43223 15.8156 2.67447 15.8156 2.98272V3.26772C15.8156 3.56846 15.531 3.81821 15.1892 3.81821H0.627219C0.284557 3.81821 0 3.56846 0 3.26772V2.98272C0 2.67447 0.284557 2.43223 0.627219 2.43223H3.18909C3.7095 2.43223 4.16239 2.11648 4.27946 1.67099L4.41362 1.15948C4.62213 0.462742 5.30832 0 6.09362 0H9.72191C10.4987 0 11.1926 0.462742 11.3934 1.12274L11.5369 1.67024C11.6532 2.11648 12.106 2.43223 12.6273 2.43223H15.1892ZM13.8876 12.8505C14.1551 10.7228 14.6234 5.66784 14.6234 5.61685C14.6405 5.46235 14.5815 5.3161 14.4645 5.19835C14.3388 5.0881 14.1799 5.02285 14.0048 5.02285H1.81749C1.64146 5.02285 1.47398 5.0881 1.35776 5.19835C1.23983 5.3161 1.18172 5.46235 1.19027 5.61685C1.19184 5.62621 1.20864 5.80427 1.23673 6.10192C1.36153 7.4244 1.70911 11.1077 1.93371 12.8505C2.09264 14.1345 3.07962 14.9415 4.50924 14.9708C5.61244 14.9925 6.74894 15 7.91112 15C9.00573 15 10.1175 14.9925 11.2549 14.9708C12.7341 14.949 13.7202 14.1563 13.8876 12.8505Z" fill="white"/>
</svg>
