<svg width="14" height="14" viewBox="0 0 14 14" fill="none" xmlns="http://www.w3.org/2000/svg">
<path d="M13.125 4.41875C12.8929 4.41875 12.6704 4.51094 12.5063 4.67503C12.3422 4.83913 12.25 5.06169 12.25 5.29375V10.5C12.2486 10.9637 12.0638 11.408 11.7359 11.7359C11.408 12.0638 10.9637 12.2486 10.5 12.25H3.5C3.0363 12.2486 2.59198 12.0638 2.26409 11.7359C1.9362 11.408 1.75138 10.9637 1.75 10.5V3.5C1.75138 3.0363 1.9362 2.59198 2.26409 2.26409C2.59198 1.9362 3.0363 1.75138 3.5 1.75H8.70625C8.93831 1.75 9.16087 1.65781 9.32497 1.49372C9.48906 1.32962 9.58125 1.10706 9.58125 0.875C9.58125 0.642936 9.48906 0.420376 9.32497 0.256282C9.16087 0.0921872 8.93831 0 8.70625 0H3.5C2.57259 0.00276977 1.68396 0.372408 1.02819 1.02819C0.372408 1.68396 0.00276977 2.57259 0 3.5V10.5C0.00276977 11.4274 0.372408 12.316 1.02819 12.9718C1.68396 13.6276 2.57259 13.9972 3.5 14H10.5C11.4274 13.9972 12.316 13.6276 12.9718 12.9718C13.6276 12.316 13.9972 11.4274 14 10.5V5.29375C14 5.06169 13.9078 4.83913 13.7437 4.67503C13.5796 4.51094 13.3571 4.41875 13.125 4.41875ZM6.3875 7.83125C6.46652 7.91416 6.56155 7.98017 6.66684 8.02527C6.77212 8.07036 6.88546 8.09362 7 8.09362C7.11454 8.09362 7.22788 8.07036 7.33316 8.02527C7.43845 7.98017 7.53348 7.91416 7.6125 7.83125L12.6438 2.8C12.8035 2.637 12.8925 2.41754 12.8913 2.18931C12.8901 1.96109 12.799 1.74254 12.6376 1.58116C12.4762 1.41977 12.2577 1.3286 12.0294 1.32745C11.8012 1.3263 11.5818 1.41526 11.4187 1.575L6.3875 6.60625C6.30459 6.68527 6.23858 6.7803 6.19348 6.88559C6.14839 6.99087 6.12513 7.10421 6.12513 7.21875C6.12513 7.33329 6.14839 7.44663 6.19348 7.55191C6.23858 7.6572 6.30459 7.75223 6.3875 7.83125Z" fill="#FE9805"/>
</svg>
